Coordinates
version=1
nRows=16
nColumns=22
inDegrees=yes

Units are S.I. units (second, meters, Newtons, ...)
If the header above contains a line with 'inDegrees', this indicates whether rotational values are in degrees (yes) or radians (no).

endheader
time	pelvis_tilt	pelvis_list	pelvis_rotation	pelvis_tx	pelvis_ty	pelvis_tz	hip_flexion_r	hip_adduction_r	hip_rotation_r	knee_angle_r	ankle_angle_r	subtalar_angle_r	hip_flexion_l	hip_adduction_l	hip_rotation_l	knee_angle_l	ankle_angle_l	subtalar_angle_l	lumbar_extension	lumbar_bending	lumbar_rotation
      2.66000000	     -1.82529975	     -2.10168799	      6.17255877	     -0.52775912	      0.96926305	     -0.30965326	     21.69445386	     -4.06348057	     -7.72004220	    -59.33225499	      3.79935943	      4.57201808	      6.34452841	      1.86117267	     10.88377881	    -15.03563134	     12.61391363	      0.86228721	     -2.79458689	      0.51750702	     -8.53078071
      2.67000000	     -1.74729089	     -2.16560308	      6.54227833	     -0.52102960	      0.96963920	     -0.31075079	     22.27746566	     -4.08844379	     -8.05184414	    -58.19283414	      4.25496299	      4.50105647	      5.43245856	      1.73128289	     11.22404217	    -14.30006979	     12.70301106	      0.85266987	     -2.87848851	      0.58432928	     -8.80658371
      2.68000000	     -1.69316581	     -2.23710665	      6.89848277	     -0.51432060	      0.96986410	     -0.31174647	     22.86413534	     -4.10373913	     -8.37766053	    -56.97629039	      4.68688872	      4.43746180	      4.58542390	      1.58806459	     11.54532963	    -13.62619033	     12.78220600	      0.81016417	     -2.94019065	      0.65226622	     -9.04067895
      2.69000000	     -1.63074427	     -2.30901551	      7.23541433	     -0.50761944	      0.96998878	     -0.31264316	     23.41744375	     -4.09981007	     -8.66617159	    -55.68483814	      5.06604752	      4.37709212	      3.76155880	      1.43505552	     11.84016173	    -13.00459898	     12.88565968	      0.72229778	     -3.01511372	      0.72180006	     -9.28144387
      2.70000000	     -1.58649241	     -2.38070248	      7.55759677	     -0.50095021	      0.96997836	     -0.31343906	     23.97172165	     -4.08430747	     -8.92151403	    -54.33829084	      5.40262376	      4.33281687	      2.99638654	      1.27863241	     12.11799120	    -12.44557326	     12.99841260	      0.61693398	     -3.07568937	      0.78472605	     -9.49580079
      2.71000000	     -1.54037785	     -2.44916109	      7.86663365	     -0.49429730	      0.96986494	     -0.31415259	     24.50082937	     -4.06024183	     -9.14483041	    -52.93837226	      5.67720050	      4.30876696	      2.26896388	      1.12164588	     12.37410660	    -11.95407708	     13.13659520	      0.48442356	     -3.14381526	      0.84473021	     -9.70534671
      2.72000000	     -1.51291439	     -2.51482651	      8.16059679	     -0.48767032	      0.96962660	     -0.31477561	     25.02957011	     -4.02947849	     -9.33416138	    -51.49689814	      5.89579355	      4.31553911	      1.60560024	      0.96827502	     12.61216839	    -11.53759462	     13.29142902	      0.35322271	     -3.19692519	      0.89771259	     -9.89158956
      2.73000000	     -1.49593344	     -2.57878878	      8.44091611	     -0.48105927	      0.96927990	     -0.31531238	     25.54649135	     -3.98687487	     -9.48323196	    -50.01711504	      6.05329534	      4.35544478	      0.99710453	      0.81780236	     12.83392658	    -11.19742779	     13.47202900	      0.22095954	     -3.24544990	      0.94720105	    -10.05589288
      2.74000000	     -1.48462808	     -2.64278300	      8.70164751	     -0.47444971	      0.96883821	     -0.31576538	     26.04550901	     -3.92989023	     -9.59204799	    -48.50255041	      6.14612098	      4.43136357	      0.43632416	      0.66996879	     13.04189978	    -10.93355731	     13.68476800	      0.07886866	     -3.29370722	      0.99838212	    -10.19625960
      2.75000000	     -1.49060036	     -2.71074219	      8.94581861	     -0.46784822	      0.96829187	     -0.31613150	     26.54072731	     -3.85509715	     -9.65795531	    -46.95980028	      6.16506627	      4.53695763	     -0.06204521	      0.52312804	     13.22974405	    -10.74648727	     13.92193906	     -0.05615404	     -3.32897100	      1.05236214	    -10.30777959
      2.76000000	     -1.50431082	     -2.78560369	      9.17326242	     -0.46124232	      0.96765748	     -0.31640666	     27.01890550	     -3.75821626	     -9.68356341	    -45.38829432	      6.10356794	      4.67064972	     -0.50864149	      0.37416611	     13.40356273	    -10.63708504	     14.19344932	     -0.19783262	     -3.36040114	      1.11232612	    -10.38666166
      2.77000000	     -1.53102969	     -2.87313745	      9.38411683	     -0.45462355	      0.96693093	     -0.31662856	     27.48356913	     -3.63858839	     -9.66976261	    -43.78924574	      5.95259818	      4.81808891	     -0.89981071	      0.22173492	     13.56050420	    -10.60231519	     14.49491222	     -0.34217675	     -3.37911184	      1.19061686	    -10.43044742
      2.78000000	     -1.56184668	     -2.97233061	      9.58006518	     -0.44798011	      0.96612246	     -0.31677676	     27.92165558	     -3.49529994	     -9.62055033	    -42.16159022	      5.71623576	      4.97675907	     -1.24854982	      0.06353456	     13.70234030	    -10.63704245	     14.83492234	     -0.50816333	     -3.39303996	      1.28273135	    -10.44413300
      2.79000000	     -1.61078718	     -3.08867493	      9.75789146	     -0.44130141	      0.96522206	     -0.31684808	     28.34680426	     -3.32203077	     -9.52809057	    -40.50433923	      5.38041734	      5.11013840	     -1.54504642	     -0.10464892	     13.82399910	    -10.73224977	     15.19836111	     -0.66421873	     -3.38314117	      1.39008873	    -10.42099958
      2.80000000	     -1.65899164	     -3.21818398	      9.92318835	     -0.43457272	      0.96425149	     -0.31685233	     28.73334864	     -3.12489401	     -9.39976095	    -38.81795399	      4.97243895	      5.22820373	     -1.81612033	     -0.28384853	     13.93081955	    -10.87965262	     15.59018029	     -0.83586750	     -3.37169736	      1.51351487	    -10.37968463
      2.81000000	     -1.70673431	     -3.35928681	     10.07305418	     -0.42777087	      0.96321911	     -0.31679840	     29.07813742	     -2.90752138	     -9.23734929	    -37.10367135	      4.50412219	      5.32955291	     -2.07607045	     -0.47532270	     14.02418426	    -11.05677271	     15.99532821	     -1.01691813	     -3.35461710	      1.65185725	    -10.31879230
